# xmcd
#
# Track frame offsets:
#       150
#       44422
#       83857
#       111410
#       147645
#       169117
#
# Disc length: 2425 seconds
#
# Revision: 1
# Processed by: cddbd v1.5.2PL0 Copyright (c) Steve Scherf et al.
# Submitted via: FreeDbEdit v0.1
#
DISCID=54097706
DTITLE=Weather Report - 8:30 [CD1]
DYEAR=1995
DGENRE=Jazz
TTITLE0=Black Market
TTITLE1=Scarlet Woman
TTITLE2=Teen Town
TTITLE3=A Remark You Made
TTITLE4=Slang (Bass Solo)
TTITLE5=In a Silent Way
EXTD=YEAR: 1995
EXTT0=
EXTT1=
EXTT2=
EXTT3=
EXTT4=
EXTT5=
PLAYORDER=
